<?xml version="1.0" encoding="UTF-8"?><svg id="Layer_2" xmlns="http://www.w3.org/2000/svg" viewBox="0 0 200 200"><defs><style>.cls-1{fill:#24282e;}.cls-2{fill:#0c1016;}.cls-3{fill:#404596;}.cls-4{fill:#7482bf;}</style></defs><path class="cls-3" d="m59.35,103.03c-2.59,0-4.76-2.16-4.76-4.76v-19.46c0-2.59,2.16-4.76,4.76-4.76h81.31c2.59,0,4.76,2.16,4.76,4.76v19.46c0,2.59-2.16,4.76-4.76,4.76H59.35Z"/><path class="cls-4" d="m100,172.66c-9.95,0-19.03-4.32-20.76-5.19l-17.3-28.98v-23.35l-3.89-3.89V46.37c12.97-18.16,41.09-18.6,41.52-18.6s28.54.43,41.52,18.6v64.87l-3.89,3.89v23.35l-17.3,28.98c-.86.86-9.95,5.19-19.89,5.19Z"/><path class="cls-1" d="m100,28.21c.43,0,27.68.43,40.65,18.16v64.44l-3.46,3.46-.43.43v23.35l-16.87,28.54c-2.16.86-10.38,4.76-19.89,4.76s-17.73-3.89-19.89-4.76l-16.87-28.54v-23.35l-.43-.43-3.46-3.46V46.37c12.97-17.3,40.22-18.16,40.65-18.16m0-1.73s-28.98,0-42.38,19.46v65.74l3.89,3.89v23.35l17.3,29.41s9.95,5.19,21.19,5.19,21.19-5.19,21.19-5.19l17.3-29.41v-23.35l3.89-3.89V45.94c-13.41-19.46-42.38-19.46-42.38-19.46h0Z"/><path class="cls-3" d="m141.52,96.11v-39.36c-6.49-7.35-24.65-11.68-25.52-12.11l-.86-.43-4.32,35.9-10.81,3.46-10.81-3.46-3.89-35.46-.86.43c-.86,0-19.46,4.76-25.95,11.68v.43-10.81c13.41-18.6,41.52-18.6,41.52-18.6.43,0,28.54.43,41.52,18.6v49.74h0Z"/><path class="cls-2" d="m100,28.21c.43,0,27.68.43,40.65,18.16v8.22c-7.78-6.49-23.79-10.38-24.65-10.81l-2.16-.43-.43,2.16-3.89,33.73-9.51,3.46-9.95-3.46-3.89-33.73-.43-2.16-1.73.43c-.86,0-16.87,4.32-24.65,10.81v-8.22c12.97-17.3,40.22-18.16,40.65-18.16m0-1.73s-28.98,0-42.38,19.46v65.74l1.73-15.57v-38.49c6.49-6.92,25.08-11.68,25.08-11.68l3.89,35.03,11.68,3.89,11.68-3.89,3.89-35.03s18.6,4.76,25.08,11.68v38.49l2.16,15.57V45.94c-13.84-19.46-42.82-19.46-42.82-19.46h0Z"/><path class="cls-3" d="m100,172.66c-9.95,0-19.03-4.32-20.76-5.19l-.43-.86h9.95l6.05-7.78h9.51l6.05,7.78h9.95l9.08-15.57-4.32-3.46c-1.73-3.46-1.3-7.35.86-10.38l11.68-18.16v19.46l-17.3,28.98c-1.3.86-10.38,4.76-20.33,5.19h0Zm-37.63-34.17v-19.89l11.68,18.16c2.16,3.03,2.59,7.35.86,10.81l-4.76,3.89,4.32,7.35-12.11-20.33h0Z"/><path class="cls-2" d="m63.24,122.06l9.95,15.57c1.73,2.59,2.16,6.49.86,9.51l-3.89,3.03-6.92-12.11v-16m73.52,0v16l-6.92,11.68-3.89-3.03c-1.3-3.03-.86-6.49.86-9.51l9.95-15.14m-32.44,37.63l5.62,6.92.43.86h6.92c-3.46,1.3-10.38,3.89-17.73,3.89s-14.27-2.16-17.73-3.89h7.35l.43-.86,5.62-6.92h9.08m34.17-44.11l-13.41,20.76c-2.16,3.46-2.59,7.78-.86,11.68l4.32,3.46-8.22,14.27h-8.65l-6.49-7.78h-10.81l-6.05,7.78h-9.08l-8.22-14.27,4.32-3.46c1.73-3.89,1.73-8.22-.86-11.68l-13.41-20.76v23.35l17.3,29.41s9.95,5.19,21.19,5.19,21.19-5.19,21.19-5.19l17.3-29.41v-23.35h.43Z"/><path class="cls-2" d="m103.89,103.89l27.25-3.89,3.89,3.89-7.78,7.78h-15.57l-7.78-7.78h0Z"/><path class="cls-2" d="m96.11,103.89l-27.25-3.89-3.89,3.89,7.78,7.78h15.57l7.78-7.78h0Z"/><path class="cls-2" d="m141.09,97.84h-9.95l-25.95,3.89h-9.95l-25.52-3.89h-10.38l-.43,2.16h9.95l25.08,3.89h11.24l25.52-3.89h10.38v-2.16h0Zm-56.66,57.52l4.76-6.92h21.19l4.76,6.92,7.78-12.11c0-1.73,0-3.03.86-4.76l-8.22,13.41-3.89-5.62h-23.35l-3.89,5.62-8.22-13.41c.43,1.73.86,3.03.86,4.76l7.35,12.11h0Z"/></svg>