<?xml version="1.0" encoding="utf-8"?>
<!-- Generator: Adobe Illustrator 27.5.0, SVG Export Plug-In . SVG Version: 6.00 Build 0)  -->
<svg version="1.1" id="Layer_2_00000116929386305999620030000007801572241809303425_"
	 xmlns="http://www.w3.org/2000/svg" xmlns:xlink="http://www.w3.org/1999/xlink" x="0px" y="0px" viewBox="0 0 167.3 34"
	 style="enable-background:new 0 0 167.3 34;" xml:space="preserve">
<style type="text/css">
	.st0{fill:#404596;}
	.st1{fill:#7482BF;}
	.st2{fill:#24282E;}
	.st3{fill:#0C1016;}
</style>
<g>
	<path class="st0" d="M4.1,17.7c-0.6,0-1.1-0.5-1.1-1.1v-4.5c0-0.6,0.5-1.1,1.1-1.1h18.8c0.6,0,1.1,0.5,1.1,1.1v4.5
		c0,0.6-0.5,1.1-1.1,1.1H4.1z"/>
	<path class="st1" d="M13.5,33.8c-2.3,0-4.4-1-4.8-1.2l-4-6.7v-5.4l-0.9-0.9v-15c3-4.2,9.5-4.3,9.6-4.3c0.1,0,6.6,0.1,9.6,4.3v15
		l-0.9,0.9v5.4l-4,6.7C17.9,32.8,15.8,33.8,13.5,33.8z"/>
	<path class="st2" d="M13.5,0.4c0.1,0,6.4,0.1,9.4,4.2v14.9l-0.8,0.8L22,20.4v5.4l-3.9,6.6c-0.5,0.2-2.4,1.1-4.6,1.1
		s-4.1-0.9-4.6-1.1L5,25.8v-5.4l-0.1-0.1l-0.8-0.8V4.6C7.1,0.6,13.4,0.4,13.5,0.4 M13.5,0c0,0-6.7,0-9.8,4.5v15.2l0.9,0.9v5.4l4,6.8
		c0,0,2.3,1.2,4.9,1.2s4.9-1.2,4.9-1.2l4-6.8v-5.4l0.9-0.9V4.5C20.2,0,13.5,0,13.5,0L13.5,0z"/>
	<path class="st0" d="M23.1,16.1v-9L23.1,7c-1.5-1.7-5.7-2.7-5.9-2.8l-0.2-0.1L16,12.4l-2.5,0.8L11,12.4l-0.9-8.2L9.9,4.3
		C9.7,4.3,5.4,5.4,3.9,7L3.9,7.1V4.6c3.1-4.3,9.6-4.3,9.6-4.3c0.1,0,6.6,0.1,9.6,4.3L23.1,16.1L23.1,16.1L23.1,16.1z"/>
	<path class="st3" d="M13.5,0.4c0.1,0,6.4,0.1,9.4,4.2v1.9C21.1,5,17.4,4.1,17.2,4l-0.5-0.1l-0.1,0.5l-0.9,7.8L13.5,13l-2.3-0.8
		l-0.9-7.8l-0.1-0.5L9.8,4c-0.2,0-3.9,1-5.7,2.5V4.6C7.1,0.6,13.4,0.4,13.5,0.4 M13.5,0c0,0-6.7,0-9.8,4.5v15.2l0.4-3.6V7.2
		c1.5-1.6,5.8-2.7,5.8-2.7l0.9,8.1l2.7,0.9l2.7-0.9l0.9-8.1c0,0,4.3,1.1,5.8,2.7v8.9l0.5,3.6V4.5C20.2,0,13.5,0,13.5,0L13.5,0z"/>
	<path class="st0" d="M13.5,33.8c-2.3,0-4.4-1-4.8-1.2l-0.1-0.2h2.3l1.4-1.8h2.2l1.4,1.8h2.3l2.1-3.6L19.3,28
		c-0.4-0.8-0.3-1.7,0.2-2.4l2.7-4.2v4.5l-4,6.7C17.9,32.8,15.8,33.7,13.5,33.8L13.5,33.8z M4.8,25.9v-4.6l2.7,4.2
		C8,26.2,8.1,27.2,7.7,28l-1.1,0.9l1,1.7L4.8,25.9L4.8,25.9z"/>
	<path class="st3" d="M5,22.1l2.3,3.6c0.4,0.6,0.5,1.5,0.2,2.2l-0.9,0.7L5,25.8L5,22.1 M22,22.1v3.7l-1.6,2.7l-0.9-0.7
		c-0.3-0.7-0.2-1.5,0.2-2.2L22,22.1 M14.5,30.8l1.3,1.6l0.1,0.2h1.6c-0.8,0.3-2.4,0.9-4.1,0.9s-3.3-0.5-4.1-0.9H11l0.1-0.2l1.3-1.6
		L14.5,30.8 M22.4,20.6l-3.1,4.8c-0.5,0.8-0.6,1.8-0.2,2.7l1,0.8l-1.9,3.3h-2l-1.5-1.8h-2.5l-1.4,1.8H8.7l-1.9-3.3l1-0.8
		c0.4-0.9,0.4-1.9-0.2-2.7l-3.1-4.8v5.4l4,6.8c0,0,2.3,1.2,4.9,1.2s4.9-1.2,4.9-1.2l4-6.8V20.6C22.4,20.6,22.4,20.6,22.4,20.6z"/>
	<path class="st3" d="M14.4,17.9l6.3-0.9l0.9,0.9l-1.8,1.8h-3.6L14.4,17.9L14.4,17.9z"/>
	<path class="st3" d="M12.6,17.9L6.3,17l-0.9,0.9l1.8,1.8h3.6L12.6,17.9L12.6,17.9z"/>
	<path class="st3" d="M23,16.5h-2.3l-6,0.9h-2.3l-5.9-0.9H4.1L4,17h2.3l5.8,0.9h2.6l5.9-0.9H23L23,16.5L23,16.5z M9.9,29.8l1.1-1.6
		h4.9l1.1,1.6l1.8-2.8c0-0.4,0-0.7,0.2-1.1L17.1,29l-0.9-1.3h-5.4L9.9,29L8,25.9c0.1,0.4,0.2,0.7,0.2,1.1L9.9,29.8L9.9,29.8z"/>
</g>
<g>
	<g>
		<path class="st0" d="M32.8,28.9h-4l6.7-17.9c0.8-2.5,2.2-4,5.1-4c3.2,0,4.8,1.9,4.8,4.7v12.7c0,0.7,0.5,1.2,1.1,1.2
			c0.6,0,1-0.4,1.2-0.9l5.2-13.7c0.8-2.5,2.2-4,5.1-4c3.2,0,4.8,1.9,4.8,4.7v17.2h-3.8v-17c0-0.8-0.5-1.2-1.1-1.2
			c-0.5,0-1,0.4-1.2,0.9l-5.2,13.7c-0.8,2.5-2.2,4-5.1,4c-3.2,0-4.8-1.9-4.8-4.7V11.8c0-0.8-0.5-1.2-1.1-1.2c-0.6,0-1,0.4-1.2,0.9
			L32.8,28.9L32.8,28.9z"/>
		<path class="st0" d="M78.5,12c4.2,0,5.9,2.4,5.9,5.6v7.9c0,2.4-0.6,3.4-3.5,3.4H73c-4,0-5.6-2-5.6-5.1s1.5-4.9,5.7-4.9h8v-1.3
			c0-1.3-0.7-2.3-2.6-2.3H68.4V12C68.4,12,78.5,12,78.5,12z M81,24.7v-3.2h-7.9c-1.8,0-2.4,0.7-2.4,2s0.7,2,2.4,2h7.1
			C80.8,25.6,81,25.3,81,24.7z"/>
		<path class="st0" d="M100.6,12v3.2h-5.9c-1.5,0-2.2,0.7-2.2,2.2v11.4h-3.4V16.9c0-3.4,1.2-4.9,4.6-4.9C93.7,12,100.6,12,100.6,12z
			"/>
		<path class="st0" d="M107.3,4.7V19h1.6c2.7,0,3.2-0.1,4.2-1.9l2.8-5.1h3.7l-2.9,5.3c-0.8,1.5-1.6,2.4-3,3c1.6,0.5,2.4,1.5,3.4,3.2
			l3,5.3h-3.8l-2.8-5c-1-1.8-1.7-2-4.6-2h-1.6v7h-3.4V4.7H107.3L107.3,4.7z"/>
	</g>
	<g>
		<path class="st1" d="M141.3,23.8c0,0.4,0,0.8-0.1,1.2c-0.1,0.4-0.2,0.8-0.4,1.2c-0.2,0.4-0.4,0.8-0.7,1.2s-0.6,0.7-1,1
			s-0.9,0.5-1.4,0.7s-1.1,0.3-1.8,0.3H127c-0.5,0-1.1-0.1-1.8-0.3c-0.6-0.2-1.2-0.5-1.8-0.9c-0.5-0.4-1-1-1.4-1.7
			c-0.4-0.7-0.5-1.5-0.5-2.6V22c0-0.4,0-0.8,0.1-1.2s0.2-0.8,0.4-1.2c0.2-0.4,0.4-0.8,0.7-1.2s0.6-0.7,1.1-1
			c-0.2-0.4-0.3-0.8-0.4-1.3c-0.1-0.4-0.1-0.8-0.1-1.2v-1.8c0-1,0.2-1.9,0.5-2.6c0.4-0.7,0.8-1.3,1.4-1.7c0.5-0.4,1.1-0.7,1.8-0.9
			c0.6-0.2,1.2-0.3,1.8-0.3h5.3c0.7,0,1.3,0.1,1.8,0.3c0.5,0.2,1,0.4,1.4,0.7s0.8,0.6,1,1c0.3,0.4,0.5,0.8,0.7,1.2
			c0.2,0.4,0.3,0.8,0.4,1.2s0.1,0.8,0.1,1.2V15c0,1-0.2,1.8-0.5,2.6c0.3,0.2,0.6,0.5,0.9,0.7c0.3,0.3,0.5,0.6,0.7,1
			c0.2,0.4,0.4,0.8,0.5,1.3s0.2,1,0.2,1.5V23.8z M137.3,22c0-0.5-0.1-0.9-0.4-1.2c-0.3-0.3-0.6-0.4-1.1-0.4H127
			c-0.5,0-0.9,0.1-1.1,0.4c-0.3,0.3-0.4,0.7-0.4,1.1v1.7c0,0.5,0.1,0.9,0.4,1.1s0.7,0.4,1.1,0.4h8.8c0.5,0,0.9-0.2,1.1-0.5
			c0.3-0.3,0.4-0.7,0.4-1.1V22z M135.6,13.2c0-0.5-0.1-0.9-0.4-1.2c-0.3-0.3-0.7-0.4-1.2-0.4h-5.2c-0.5,0-0.9,0.1-1.2,0.4
			s-0.4,0.7-0.4,1.2V15c0,0.5,0.1,0.9,0.4,1.2c0.3,0.3,0.6,0.4,1.1,0.4h5.3c0.5,0,0.9-0.1,1.2-0.4c0.3-0.3,0.4-0.7,0.4-1.2V13.2z"/>
		<path class="st1" d="M164.5,23.8c0,0.4,0,0.8-0.1,1.2c-0.1,0.4-0.2,0.8-0.4,1.2c-0.2,0.4-0.4,0.8-0.7,1.2s-0.6,0.7-1,1
			c-0.4,0.3-0.9,0.5-1.4,0.7s-1.1,0.3-1.8,0.3h-14.3v-3.9h14.3c0.5,0,0.9-0.2,1.1-0.5s0.4-0.7,0.4-1.1V22c0-0.5-0.1-0.9-0.4-1.2
			c-0.3-0.3-0.7-0.4-1.2-0.4h-8.8c-1,0-1.9-0.2-2.6-0.5c-0.7-0.4-1.3-0.8-1.7-1.4c-0.4-0.6-0.7-1.1-0.9-1.8
			c-0.2-0.6-0.3-1.2-0.3-1.8V7.7h18v3.9h-14.1V15c0,0.5,0.1,0.9,0.4,1.2c0.3,0.3,0.7,0.4,1.2,0.4h8.8c0.5,0,1.1,0.1,1.8,0.3
			c0.6,0.2,1.2,0.5,1.8,0.9c0.5,0.4,1,1,1.4,1.7s0.5,1.6,0.5,2.6V23.8z"/>
	</g>
</g>
</svg>
